<?xml version="1.0" encoding="UTF-8"?>
<svg id="Capa_2" data-name="Capa 2" xmlns="http://www.w3.org/2000/svg" viewBox="0 0 146.87 39.53">
  <defs>
    <style>
      .cls-1 {
        fill: #1b0f02;
      }
    </style>
  </defs>
  <g id="Capa_1-2" data-name="Capa 1">
    <g>
      <path class="cls-1" d="m73.46,0C93.71,0,113.95,0,134.19,0c2.68,0,5.14.74,7.32,2.3,3.01,2.16,4.77,5.08,5.24,8.76.07.54.1,1.1.1,1.65,0,4.77.07,9.54-.01,14.3-.08,4.92-2.36,8.61-6.64,11.04-1.83,1.04-3.84,1.49-5.94,1.49-40.6,0-81.2,0-121.8,0-5.91,0-11.19-4.41-12.22-10.23-.14-.81-.22-1.65-.22-2.48C0,22.09,0,17.34,0,12.6,0,6.77,3.93,1.77,9.59.36,10.61.11,11.65,0,12.71,0c20.25,0,40.5,0,60.75,0ZM3.06,11.32c.16,0,.29,0,.43,0,35.79,0,71.58,0,107.37,0,10.87,0,21.74,0,32.61,0,.23,0,.36-.01.34-.3-.07-1.04-.27-2.05-.76-2.98-1.9-3.59-4.93-5.41-8.96-5.63-40.32,0-80.63,0-120.95,0-2.12,0-4.06.56-5.83,1.72-1.96,1.29-3.38,3-4,5.3-.17.61-.26,1.23-.24,1.89Zm68.41,10.11s-.03-.02-.04-.03c-.02-.02-.03-.04-.04-.07-.5-.93-1.29-1.47-2.31-1.7-.88-.2-1.77-.19-2.67-.16-1.07.04-1.99.42-2.76,1.18-.17.16-.32.34-.52.55,0-.28.01-.51,0-.73-.03-.44-.2-.82-.66-.94-.51-.14-1.03-.17-1.45.26-.1.1-.16.25-.21.39-.04.15-.06.31-.06.47,0,3.94,0,7.87,0,11.81,0,.14.02.28.05.41.09.41.36.67.77.73.94.14,1.6-.14,1.57-1.26,0-.06,0-.12,0-.18,0-2.43,0-4.86,0-7.3,0-.29.02-.58.05-.86.14-1.19.77-1.94,1.92-2.06.95-.1,1.92-.09,2.88-.01.83.06,1.39.59,1.61,1.4.1.37.17.75.18,1.13.03,1.02.01,2.05.01,3.07,0,1.64,0,3.29,0,4.93,0,.4.08.79.46,1,.46.26.95.25,1.41.03.43-.2.5-.61.5-1.05,0-2.46,0-4.92,0-7.37,0-.33.02-.66.05-.99.13-1.23.74-1.99,1.91-2.13.9-.11,1.82-.11,2.72-.05.99.06,1.63.64,1.84,1.62.07.31.13.62.13.93.01,2.41.01,4.81.02,7.22,0,.3,0,.6,0,.89.02.57.26.94.75,1.03.28.06.6.06.88,0,.51-.1.74-.48.74-1.11,0-2.57,0-5.14,0-7.72,0-.56-.04-1.12-.12-1.67-.29-2.07-1.33-3.18-3.39-3.49-1-.15-2.02-.11-3.04-.1-1.06.01-1.95.45-2.64,1.26-.19.22-.37.46-.56.69Zm-56.21,2.73s0,0-.01,0c0,1.11-.02,2.22,0,3.33.02.68.08,1.36.21,2.03.3,1.5,1.06,2.71,2.48,3.42.88.44,1.83.65,2.81.67,1.35.04,2.7.06,4.04.03.77-.02,1.54-.1,2.29-.25,1.16-.24,2.13-.84,2.74-1.9.46-.8.64-1.68.7-2.58.02-.36-.13-.66-.47-.84-.81-.43-1.7-.03-1.9.86-.02.09-.03.19-.05.28-.15,1.12-.64,1.69-1.7,1.91-.33.07-.68.12-1.01.12-1.36.02-2.71.03-4.07,0-.53,0-1.07-.07-1.59-.17-1.04-.21-1.7-.84-1.91-1.88-.1-.5-.18-1.02-.19-1.53-.02-2.33-.02-4.65,0-6.98,0-.54.08-1.08.2-1.61.21-1,.85-1.63,1.86-1.83.47-.09.95-.15,1.43-.16,1.24-.02,2.49-.01,3.73,0,.38,0,.75.02,1.13.06,1.21.12,1.81.6,2.06,1.61.04.15.06.31.08.47.1.76.47,1.16,1.16,1.2.75.05,1.38-.31,1.23-1.23-.04-.27-.07-.54-.12-.8-.34-1.67-1.27-2.85-2.94-3.33-.65-.19-1.34-.3-2.01-.33-1.43-.05-2.85-.04-4.28-.02-.57,0-1.16.07-1.72.17-1.89.36-3.24,1.39-3.79,3.27-.21.72-.33,1.49-.37,2.24-.06,1.26-.02,2.52-.02,3.78Zm31.02,2.39s-.03,0-.05,0c0-.52.02-1.05,0-1.57-.03-.62-.06-1.24-.18-1.85-.31-1.6-1.18-2.78-2.78-3.28-.59-.19-1.23-.31-1.85-.34-1.06-.06-2.12-.04-3.18-.02-.57.01-1.14.06-1.69.18-1.54.32-2.66,1.16-3.2,2.68-.24.67-.37,1.37-.38,2.08-.02,1.3-.03,2.61,0,3.91,0,.55.06,1.1.16,1.64.28,1.43,1.01,2.54,2.38,3.15.7.31,1.45.48,2.21.5,1.15.03,2.31.03,3.47.01.8,0,1.59-.14,2.33-.45,1.57-.64,2.36-1.89,2.57-3.49.14-1.04.13-2.09.19-3.14Zm74.72,0c-.03-.94-.03-1.9-.11-2.85-.07-.9-.35-1.75-.9-2.48-.81-1.09-1.97-1.56-3.27-1.67-1.17-.1-2.34-.07-3.52-.07-.54,0-1.09.04-1.62.12-1.09.18-2.07.6-2.79,1.48-.68.83-.99,1.82-1.04,2.86-.07,1.28-.06,2.57-.05,3.85,0,.6.03,1.21.1,1.8.27,2.18,1.63,3.59,3.8,3.91,1.74.25,3.49.21,5.24.04.95-.09,1.84-.42,2.58-1.06.94-.82,1.35-1.9,1.47-3.1.09-.94.07-1.89.11-2.84Zm6.21-7.08c0-.13,0-.22,0-.32,0-.59,0-1.19,0-1.78-.01-.68-.33-1.03-1.01-1.1-.2-.02-.42,0-.62.04-.36.08-.6.31-.69.68-.04.18-.05.36-.06.54,0,.64,0,1.27,0,1.94-.12,0-.22,0-.31,0-.4,0-.81,0-1.21,0-.52.02-.88.28-.97.76-.05.28-.05.58,0,.86.08.42.37.68.8.72.45.04.91.03,1.36.04.1,0,.2,0,.32.02v.34c0,2.03-.01,4.06,0,6.09,0,.58.06,1.17.16,1.74.3,1.57,1.15,2.71,2.72,3.25.83.28,1.69.37,2.56.36.38,0,.75-.08.96-.43.27-.46.27-.96.05-1.43-.2-.42-.62-.5-1.05-.52-.36-.02-.72-.03-1.07-.07-1.1-.14-1.64-.62-1.83-1.64-.07-.36-.11-.73-.11-1.09-.01-2.1,0-4.2,0-6.3v-.31c.13,0,.24,0,.34,0,.95,0,1.91,0,2.86,0,.38,0,.75-.07.97-.41.29-.45.29-.95.07-1.43-.2-.45-.61-.53-1.06-.53-.96,0-1.93,0-2.89,0-.09,0-.19,0-.3,0Zm-34.88,3.04c0,2.29,0,4.58,0,6.87,0,.36.02.72.07,1.07.13.89.43,1.7,1.15,2.29,1.01.83,2.2.97,3.44.85.42-.04.7-.33.76-.76.03-.25.03-.51-.01-.76-.08-.46-.37-.72-.83-.78-.28-.04-.56-.04-.84-.06-.72-.05-1.1-.28-1.23-.82-.07-.29-.11-.6-.11-.91,0-4.7,0-9.39,0-14.09,0-.19,0-.39-.04-.57-.07-.49-.34-.79-.83-.85-.27-.04-.56-.01-.83.04-.32.06-.54.29-.62.61-.05.18-.07.38-.07.57,0,2.43,0,4.86,0,7.29Zm8.3,0c0,2.33,0,4.65,0,6.98,0,.33.02.67.07.99.21,1.4.89,2.45,2.31,2.91.69.22,1.4.29,2.12.24.35-.03.64-.17.82-.49.48-.91-.07-1.85-1.09-1.87-.28,0-.56-.02-.84-.07-.57-.1-.85-.37-.94-.94-.05-.32-.08-.64-.08-.96,0-4.66,0-9.32,0-13.99,0-.17,0-.35-.04-.52-.05-.28-.18-.52-.44-.65-.47-.23-.95-.24-1.41,0-.42.22-.48.63-.48,1.06,0,2.44,0,4.88,0,7.32Zm-48.8-.86c0-.46.01-.83,0-1.21-.02-.5-.29-.81-.74-.93-.58-.16-1.18,0-1.43.38-.07.11-.12.23-.15.36-.03.16-.05.33-.05.49,0,3.87,0,7.75,0,11.62,0,.16.01.33.05.49.08.38.3.64.68.72.89.19,1.69-.04,1.66-1.18,0-.07,0-.14,0-.21,0-2.33,0-4.67,0-7,0-.72.23-1.36.71-1.9.48-.55,1.09-.89,1.78-1.11.83-.26,1.68-.33,2.54-.33.66,0,1.04-.27,1.13-.83.04-.24.04-.49,0-.73-.08-.49-.4-.78-.9-.8-1.76-.07-3.37.32-4.69,1.56-.18.17-.35.36-.58.61Zm33.62,4.89c0,.24,0,.49,0,.73,0,1.74,0,3.48,0,5.22,0,.43.11.8.53,1.01.95.48,1.85-.07,1.85-1.13,0-3.69,0-7.38,0-11.08,0-.25,0-.51,0-.76-.01-.36-.11-.71-.44-.9-.46-.27-.96-.27-1.44-.03-.42.21-.5.62-.5,1.05,0,1.96,0,3.92,0,5.88Zm1.18-9.36h0c.2.01.4.02.6,0,.61-.03,1.01-.38,1.06-.99.04-.49.04-.99,0-1.49-.05-.62-.44-.98-1.07-1.01-.4-.02-.8-.02-1.21,0-.66.03-1.06.4-1.11,1.06-.04.48-.03.96.01,1.44.05.56.43.92,1,.97.23.02.47,0,.71,0Z"/>
      <path class="cls-1" d="m111.46,5.11h.35c7.43,0,14.87-.03,22.3.02,2.61.02,4.65,1.26,6.14,3.38.02.03.03.06.08.15h-.32c-6.29,0-12.57,0-18.86,0-3.12,0-6.23,0-9.35,0-.27,0-.34-.07-.33-.34.02-.97,0-1.94,0-2.91v-.3Z"/>
      <path class="cls-1" d="m6.53,8.63c.72-1.15,1.67-1.99,2.81-2.61,1.13-.61,2.33-.92,3.62-.92,7.35,0,14.69,0,22.04,0h.38v3.53H6.53Z"/>
      <path class="cls-1" d="m61.68,5.97v3.47h-1.17v-4.82c.58,0,1.16,0,1.73,0,.06,0,.14.11.16.19.25.92.48,1.84.72,2.76.01.06.04.11.08.23.29-1.1.56-2.14.83-3.18h1.83v4.81h-1.16v-3.48s-.04,0-.06,0c-.12.42-.24.85-.36,1.27-.19.67-.38,1.34-.56,2.02-.04.17-.12.22-.29.22-.74,0-.74,0-.93-.71-.26-.93-.52-1.87-.78-2.8-.02,0-.04,0-.06,0Z"/>
      <path class="cls-1" d="m76.55,9.45v-4.82c.41,0,.81,0,1.2,0,.07,0,.15.11.19.18.48.84.96,1.69,1.44,2.53.03.06.07.11.15.23v-2.93h1.16v4.83c-.39,0-.79,0-1.19,0-.06,0-.13-.1-.17-.17-.47-.84-.94-1.68-1.41-2.52-.04-.07-.09-.14-.18-.21v2.88h-1.19Z"/>
      <path class="cls-1" d="m90.93,7.05c0-1.22.63-2.15,1.65-2.43,1.78-.49,3.26.77,3.11,2.63-.1,1.25-.8,2.09-1.88,2.27-1.66.28-2.89-.77-2.89-2.47Zm3.56,0c-.07-.28-.12-.57-.22-.83-.17-.42-.51-.61-.95-.61-.45,0-.77.21-.95.62-.23.54-.23,1.09,0,1.63.18.4.5.6.93.61.44,0,.79-.18.96-.6.1-.25.15-.53.23-.82Z"/>
      <path class="cls-1" d="m69.35,9.45v-4.81h3.82v.98h-2.54v.85h2.32v.98h-2.33v.91h2.62v1.08h-3.9Z"/>
      <path class="cls-1" d="m102.73,6.08c-.4,0-.76,0-1.13,0-.05,0-.13-.09-.14-.14-.07-.46-1.01-.55-1.28-.25-.15.17-.13.39.09.5.21.1.44.16.67.23.39.13.79.22,1.17.38.46.19.75.54.77,1.06.03.57-.14,1.08-.66,1.36-.91.49-1.85.5-2.77.03-.53-.27-.79-.81-.75-1.4h1.21c.02.06.04.12.06.19.06.25.2.45.46.48.28.03.57.02.85-.01.19-.03.36-.18.32-.38-.03-.15-.15-.32-.28-.39-.25-.12-.53-.17-.79-.26-.35-.12-.71-.2-1.03-.37-.89-.48-.93-1.69-.06-2.21.82-.49,1.69-.5,2.54-.08.49.24.75.67.75,1.27Z"/>
      <path class="cls-1" d="m46.1,9.47c-.39,0-.78,0-1.16,0-.06,0-.11-.07-.17-.12-.02-.02-.02-.05-.03-.07-.08-.21-.1-.51-.25-.61-.16-.11-.45-.04-.69-.05-.2,0-.41.02-.6,0-.31-.05-.43.09-.51.37-.15.51-.17.5-.71.5h-.73c.01-.07.02-.13.03-.18.56-1.49,1.12-2.97,1.67-4.46.05-.15.12-.21.28-.2.3.01.6,0,.89.01.09,0,.21.08.24.16.58,1.52,1.15,3.05,1.72,4.58,0,.01,0,.03,0,.09Zm-1.89-1.83c-.17-.55-.34-1.08-.53-1.67-.19.6-.36,1.12-.54,1.67h1.07Z"/>
      <path class="cls-1" d="m86.55,5.71v3.74h-1.26v-3.73h-1.44v-1.07h4.13v1.06h-1.43Z"/>
      <path class="cls-1" d="m49.09,4.63h1.24v3.74h2.25v1.08h-3.49v-4.82Z"/>
      <path class="cls-1" d="m55.79,4.64h1.24v4.81h-1.24v-4.81Z"/>
      <path class="cls-1" d="m43.87,26.5c-.03.89-.05,1.76-.08,2.62,0,.08-.02.16-.04.23-.23,1.2-.74,1.68-1.96,1.83-.42.05-.84.07-1.26.07-1.05,0-2.1-.03-3.15-.07-.26-.01-.51-.1-.76-.18-.72-.24-1.03-.8-1.16-1.49-.07-.36-.11-.73-.11-1.09-.01-1.24-.02-2.48,0-3.73,0-.41.07-.82.14-1.22.17-.86.72-1.38,1.58-1.5,1.62-.23,3.25-.22,4.87-.02,1.22.15,1.73.75,1.84,1.99.07.86.07,1.73.09,2.57Z"/>
      <path class="cls-1" d="m118.63,26.55c-.03.88-.06,1.76-.1,2.65,0,.14-.04.28-.07.41-.25.99-.78,1.47-1.88,1.56-.88.08-1.77.07-2.65.08-.57,0-1.14,0-1.7-.06-1.41-.16-2.03-.77-2.08-2.2-.06-1.64-.01-3.29,0-4.93,0-.2.06-.4.1-.59.18-.85.71-1.38,1.55-1.49,1.64-.23,3.3-.23,4.95-.02,1.18.16,1.65.74,1.79,1.92.02.14.05.28.05.42,0,.75,0,1.5,0,2.26.02,0,.03,0,.05,0Z"/>
    </g>
  </g>
</svg>