<?xml version="1.0" encoding="UTF-8"?>
<svg id="Capa_2" data-name="Capa 2" xmlns="http://www.w3.org/2000/svg" viewBox="0 0 150 22.45">
  <g id="Capa_1-2" data-name="Capa 1">
    <g>
      <path d="m150,10.86c.04,5.13-3.42,9.14-6.98,10.48-5.74,2.16-13.02-.67-14.35-7.96-1.04-5.71,1.43-10.11,5.88-12.28,5.61-2.74,12.89-.33,14.85,6.45.31,1.07.4,2.21.6,3.31Zm-10.95,9.08c2.78-.09,4.96-1.18,6.2-3.26,2.16-3.6,1.92-7.27-.07-10.83-1.45-2.59-3.73-3.88-6.78-3.58-2.96.29-4.99,1.89-6.05,4.58-1.4,3.55-.88,6.95,1.3,10.04,1.35,1.92,3.3,2.9,5.39,3.05Z"/>
      <path d="m106.68.7c1.43,0,2.59-.04,3.74.03.28.02.59.36.8.63,3.81,4.96,7.6,9.93,11.39,14.9.07.1.2.16.41.32.07-.32.16-.56.16-.79,0-4.03-.03-8.06,0-12.1.01-1.11-.4-2-1.2-2.95h4.47c-.3.46-.7.86-.82,1.32-.21.82-.35,1.69-.35,2.54-.02,5.44,0,10.87,0,16.31,0,.47-.04.95-.06,1.54-1.3-.39-2.24-.99-2.96-1.87-1.41-1.71-2.78-3.46-4.13-5.22-2.51-3.27-5.01-6.55-7.51-9.83-.05-.07-.15-.1-.37-.23-.06.39-.14.71-.14,1.03,0,3.9.01,7.79,0,11.69,0,1.26.13,2.45,1.45,3.42-1.77.24-3.27.09-5.05.12,1.65-1.41,1.59-3.11,1.58-4.83-.02-3.9-.02-7.79,0-11.69,0-1.52-.1-2.98-1.42-4.35Z"/>
      <path d="m47.32.82v3c-1-.42-1.91-.94-2.89-1.18-4.01-.99-8.2.26-10.14,3.88-2.53,4.72-.56,10.99,4.96,12.97,2.17.78,4.37.61,6.57.07.55-.13.77-.42.76-.94,0-1.72.05-3.45-.06-5.16-.05-.76-.46-1.5-.72-2.31h3.74v10.07c-1.02.2-2.11.48-3.21.62-2.8.36-5.59.47-8.38-.23-6.63-1.67-8.76-7.34-7.99-12.09.73-4.5,3.41-7.27,7.66-8.63,2.87-.92,5.81-.83,8.75-.42.3.04.58.21.95.35Z"/>
      <path d="m72.78,21.53h-5.13c.67-.87.48-1.68.13-2.54-.6-1.46-1.15-2.95-1.66-4.45-.21-.6-.5-.89-1.16-.88-2.04.03-4.08.03-6.13,0-.69,0-1.06.24-1.28.92-.47,1.46-1.06,2.89-1.54,4.35-.28.85-.47,1.75.41,2.58h-4.75c2-1.79,2.47-4.14,3.33-6.3,1.56-3.95,3.07-7.92,4.59-11.89.31-.81.56-1.64-.08-2.56h4.25c.16.31.36.66.51,1.03,2.12,5.38,4.24,10.76,6.36,16.15.5,1.27,1.06,2.51,2.17,3.57Zm-7.85-10.1c-1.08-2.73-1.88-5.31-3.17-7.75-1.1,2.53-2.19,5-3.01,7.75h6.18Z"/>
      <path d="m95.04,9.12h5.06v2.72c-1.6-.8-3.21-.6-4.93-.56v7.75c2.28.05,4.45.89,6.65.1.93-.33,1.81-.79,2.88-1.27-.42,1.25-.81,2.43-1.22,3.64h-12.47c1-1.22,1.04-2.57,1.03-3.94-.01-4.39-.02-8.79-.03-13.18,0-1.23-.07-2.44-.87-3.48.95-.3,8.23-.39,10.63-.14v2.94c-1.76-1.22-3.67-.92-5.55-.87-1.05.03-1.17.17-1.18,1.21-.02,1.62,0,3.24,0,5.07Z"/>
      <path d="m89.22,17.84c-.29.8-.58,1.6-.89,2.4-.52,1.34-.53,1.35-1.94,1.35-2.72,0-5.44,0-8.16,0-.85,0-1.71,0-2.82,0,1.17-1.2,1.11-2.51,1.11-3.82-.01-4.39-.01-8.78,0-13.18,0-1.31.1-2.64-1.06-3.81h4.96c-.97,1.44-.89,2.93-.88,4.41.01,4.17.02,8.33.03,12.5,0,.4,0,.8,0,1.32,3.37.44,6.64,1.19,9.67-1.17Z"/>
      <path d="m10.92,6.71c.07-1.32-.29-2.64-.89-3.88-.33-.69-.22-1.25.19-1.78.2-.26.61-.65.78-.58.32.12.68.48.77.82.24.89.44,1.81.49,2.72.31,6.07-3.97,10.34-8.86,11.28-.16.03-.32.04-.48.04-.84.02-1.31-.26-1.27-.76.06-.75.75-1.29,1.49-1.24.91.06,1.85.17,2.75.06,2.36-.29,5.48-3.41,5.02-6.68Z"/>
      <path d="m16.73,3.29c1.29.81,1.37,1.35.67,2.4-.53.79-1.11,1.62-1.36,2.52-.8,2.89.67,6.61,4.66,7.88.8.25,1.63.43,2.46.56.8.13,1.31.53,1.62,1.26.31.71-.02,1.19-.82,1.09-.43-.05-.87-.19-1.28-.34-3.75-1.4-6.4-3.86-7.26-7.87-.43-2.01-.54-4.08.36-6.03.24-.52.63-.98.95-1.46Z"/>
      <path d="m10.53,16.81c2.84.31,5.68,1.14,7.77,3.63.28.33.51.73.66,1.14.07.2-.03.6-.19.72-.46.35-1.5.07-1.81-.43-.06-.1-.1-.22-.15-.33-1.02-2.67-3.04-3.94-5.82-4.17-1.4-.12-2.62.34-3.74,1.11-1.1.76-2.14,1.59-2.84,2.75-.49.81-1.23.97-2.08.85-.62-.08-.81-.45-.53-1.02.07-.14.17-.28.28-.39,2.22-2.36,4.93-3.69,8.45-3.86Z"/>
      <path d="m9.46,12.99c-2.59,3.66-7.08,6.3-9.46,5.57.26-1.5.7-1.79,2.15-1.98,1.05-.14,2.14-.43,3.09-.9,1.18-.58,2.23-1.41,3.34-2.12.3-.19.61-.36.91-.54,0,0-.02-.02-.02-.02Z"/>
      <path d="m13.52,16.57c2.36.14,4.51.7,6.43,1.96.97.63,1.84,1.43,2.7,2.21.2.18.36.61.28.83-.07.19-.5.33-.78.36-.61.06-1.21.01-1.61-.58-1.6-2.34-3.97-3.57-6.56-4.49-.11-.04-.23-.06-.34-.1-.03,0-.04-.06-.13-.19Z"/>
      <path d="m14.56,10.53c-1.17-2.24-1.43-4.63-1.15-7.1.09-.79.26-1.58.47-2.35C13.99.7,14.29.37,14.51,0c1.09.88,1.41,1.53.94,2.44-1.15,2.21-1.09,4.55-.95,6.92.02.4.02.8.03,1.2l.03-.02Z"/>
      <path d="m17.24,12.53c1.58.78,3.02,1.27,4.66.85.62-.16,1.4.8,1.25,1.44-.12.52-.55.54-.96.5-1.76-.19-3.37-.72-4.59-2.1-.08-.09-.16-.18-.22-.28-.04-.06-.05-.15-.13-.4Z"/>
      <path d="m9.53,10.01c-.07-1.52-.51-2.9-1.45-4.11-.64-.82-.62-1.08.05-1.86.13-.15.31-.24.46-.36,1.56,1.34,1.96,3.94.95,6.33Z"/>
      <path d="m10.66,18.1c-1.38,1.04-2.39,2.13-2.88,3.65-.19.58-1.25.88-1.71.49-.16-.14-.21-.59-.12-.83.45-1.17,1.32-1.99,2.36-2.63.64-.39,1.3-.8,2.35-.68Z"/>
      <path d="m14.53,10.56c.08.13.16.26.24.4-.04.02-.09.04-.13.05-.03-.16-.05-.32-.08-.48,0,0-.03.02-.03.02Z"/>
      <polygon points="9.48 13.01 9.49 12.95 9.46 12.99 9.48 13.01"/>
    </g>
  </g>
</svg>