<?xml version="1.0" encoding="UTF-8"?>
<svg id="Capa_2" data-name="Capa 2" xmlns="http://www.w3.org/2000/svg" viewBox="0 0 150 86.74">
  <defs>
    <style>
      .cls-1 {
        fill: #1b0f02;
      }
    </style>
  </defs>
  <g id="Capa_1-2" data-name="Capa 1">
    <g>
      <path class="cls-1" d="m16.31,66.57c-6.27-4.43-11.63-9.56-14.49-16.77-3.27-8.23-2-16.01,2.82-23.28,3.49-5.28,8.22-9.29,13.51-12.65,8.2-5.21,17.18-8.49,26.58-10.73,5.45-1.29,10.98-2.16,16.55-2.64,6.37-.55,12.74-.65,19.13-.26,8.22.5,16.32,1.73,24.27,3.91,7.69,2.11,15.03,5.04,21.85,9.22.14.09.28.18.59.38-2.31-.76-4.41-1.51-6.53-2.15-6.43-1.96-12.98-3.31-19.64-4.22-6.89-.94-13.8-1.39-20.75-1.38-13.09,0-26.01,1.46-38.66,4.92-8.63,2.36-16.93,5.54-24.48,10.44-4.86,3.15-9.21,6.87-12.24,11.9-1.91,3.16-3.01,6.57-2.98,10.29.03,4.43,1.62,8.31,4.2,11.84,2.61,3.58,5.92,6.42,9.57,8.89,1.18.8,1.18.79.71,2.29Z"/>
      <path class="cls-1" d="m38.54,19.36c-.51,2.25-.98,4.36-1.46,6.47-3.21,14.09-6.42,28.18-9.65,42.27-.99,4.31-2.34,8.47-5.02,12.08-2.91,3.92-6.92,5.82-11.67,6.34-.96.11-1.94.15-2.93.22-.37-1.01-.7-1.94-1.05-2.9,4.34-.58,6.8-3.41,8.75-6.88,1.54-2.73,2.19-5.74,2.8-8.78,2.08-10.44,4.2-20.87,6.3-31.31,1.13-5.61,2.26-11.23,3.41-16.84.05-.25.34-.64.53-.64,3.28-.04,6.57-.03,10-.03Z"/>
      <path class="cls-1" d="m72.63,31.08c-.6,2.89-1.17,5.69-1.76,8.49-1.65,7.89-3.31,15.78-4.94,23.67-.16.77-.42,1.04-1.24,1.01-2.31-.07-4.63-.02-6.94-.02h-.93c.26-1.21.5-2.31.78-3.61-.47.28-.8.46-1.11.65-2.62,1.62-5.38,2.97-8.46,3.38-1.39.19-2.85.24-4.23.02-2.66-.43-4.33-2.53-4.77-5.44-.46-3.1.1-6.1.73-9.1,1.16-5.55,2.33-11.1,3.45-16.66.15-.75.4-1.11,1.22-1.22,2.51-.34,5-.79,7.5-1.19.21-.03.44,0,.75,0-.47,2.27-.93,4.48-1.4,6.7-1.01,4.84-2.07,9.68-2.98,14.54-.25,1.34-.24,2.79-.06,4.14.31,2.28,1.93,3.33,4.29,3,2-.28,3.79-1.1,5.37-2.34.27-.21.45-.62.53-.98,1.63-7.67,3.24-15.34,4.82-23.02.11-.55.33-.71.85-.79,2.58-.4,5.16-.84,7.74-1.27.21-.03.44,0,.78,0Z"/>
      <path class="cls-1" d="m127.68,31.84c-.16.9-.25,1.67-.46,2.4-.06.2-.47.41-.73.42-2.15.03-4.29.04-6.44,0-.6,0-.86.14-1,.79-1.38,6.72-2.82,13.44-4.2,20.16-.14.67-.12,1.39-.06,2.08.11,1.18.96,2.15,2.32,2.26,1.79.15,3.6.02,5.4.01.11,0,.22-.02.49-.04-.55,1.2-1.04,2.33-1.58,3.43-.07.15-.36.23-.57.26-2.88.44-5.77.9-8.66,1.26-.95.12-1.96.02-2.91-.16-2.89-.52-4.35-2.36-3.87-5.77.53-3.74,1.4-7.42,2.15-11.13.83-4.08,1.71-8.16,2.56-12.24.05-.24.07-.49.11-.84h-4.05c.18-.93.3-1.73.51-2.52.04-.16.42-.32.65-.33.92-.04,1.84-.04,2.76,0,.55.02.78-.19.89-.73.42-2.1.87-4.19,1.36-6.27.07-.3.41-.72.68-.77,2.82-.5,5.64-.93,8.62-1.4-.61,3.05-1.21,6.02-1.83,9.14h7.84Z"/>
      <path class="cls-1" d="m99.89,36.43c-1.73-.57-3.36-1.21-5.04-1.63-2.18-.55-4.32-.32-6.27.9-1.15.72-1.96,1.69-2.27,3.06-.25,1.11.05,2.02.9,2.69.82.65,1.72,1.22,2.63,1.76,1.68.99,3.44,1.85,5.08,2.89,2.36,1.51,4.07,3.52,4.07,6.5,0,2.53-.78,4.82-2.44,6.77-2.35,2.78-5.46,4.23-8.92,5.05-4.51,1.07-8.9.48-13.2-1.07-.22-.08-.51-.33-.53-.52-.11-1.02-.15-2.05-.23-3.2.31.12.53.19.75.28,2.86,1.24,5.84,1.83,8.95,1.59,1.84-.14,3.54-.76,4.98-1.95,2.55-2.11,2.56-5.21-.12-7.14-1.55-1.12-3.31-1.94-4.96-2.91-.84-.49-1.69-.97-2.5-1.51-3.43-2.31-4.14-5.43-2.44-9.36,1.04-2.4,2.96-4.04,5.25-5.19,4.76-2.4,9.67-2.99,14.77-1.09.96.36,1.58.77,1.43,1.94-.09.7.08,1.44.13,2.13Z"/>
      <path class="cls-1" d="m150,9.48c-.38,2-.74,3.91-1.11,5.82-.7,3.6-1.43,7.2-2.11,10.81-.1.53-.25.75-.83.75-5.38-.02-10.75-.01-16.13-.01-.19,0-.38-.03-.62-.06,1.13-5.79,2.25-11.54,3.37-17.3h17.43Zm-13.43,15.3c1.31,0,2.52.02,3.73-.03.16,0,.4-.34.45-.55.25-1.08.48-2.17.65-3.27.08-.54.32-.7.82-.68.83.03,1.67.03,2.51,0,.23-.01.62-.16.66-.31.28-1.23.5-2.47.75-3.82h-3.77c.27-1.45.52-2.81.78-4.22h-4.06c-.29,1.42-.58,2.82-.87,4.25-1.21,0-2.32-.02-3.43.02-.23,0-.62.22-.66.4-.28,1.18-.48,2.38-.73,3.72h4.03c-.29,1.55-.56,2.96-.85,4.51Z"/>
      <path class="cls-1" d="m108.54,76.4c-27.04,7.74-53.75,7.18-80.22-3.1.24-.8.43-1.42.6-2.01,26.1,9.39,52.68,10.09,79.62,5.11Z"/>
    </g>
  </g>
</svg>