<?xml version="1.0" encoding="UTF-8"?>
<svg id="Capa_2" data-name="Capa 2" xmlns="http://www.w3.org/2000/svg" viewBox="0 0 150 13.14">
  <g id="Capa_1-2" data-name="Capa 1">
    <g>
      <path d="m23.95,13h-3.49V4.23c-.09-.03-.18-.06-.26-.09-2.23,2.06-4.46,4.12-6.68,6.19-.59.55-1.1,1.21-2.11,1.04-2.53-2.37-5.1-4.77-7.66-7.17-.09.02-.19.04-.28.06v8.72H0V.11h3.5c2.7,2.48,5.5,5.06,8.39,7.71,2.04-1.85,4.02-3.63,5.99-5.42.12-.11.24-.24.35-.37,1.48-1.85,3.41-2.36,5.73-1.84v12.81Z"/>
      <path d="m99.77,8.39c2.44,1.47,4.88,2.94,7.32,4.41l-.03.25c-1.34,0-2.68-.07-4.02.02-1.13.08-2.05-.27-2.95-.89-1.99-1.38-4-2.71-6-4.05v-2.22h7.25v-3.58h-11.16v10.67h-4.2V.08c4.22,0,8.34,0,12.46,0,1.62,0,3.24-.02,4.85,0,1.41.02,2.16.53,2.29,1.86.14,1.38.14,2.8-.01,4.18-.15,1.39-.95,1.96-2.35,1.98-1.13.01-2.26,0-3.38,0-.03.09-.05.19-.08.28Z"/>
      <path d="m150,.33c-2.41,2.02-4.83,4.04-7.43,6.22,2.53,2.13,4.94,4.16,7.34,6.19-.03.1-.07.19-.1.29-2.13-.2-4.41.82-6.29-1.29-1.03-1.16-2.34-2.07-3.62-3.18-1.9,1.52-3.74,3-5.58,4.48h-4.84c-.04-.07-.09-.14-.13-.21,2.62-2.06,5.24-4.12,8.05-6.34-2.68-2.13-5.22-4.16-7.77-6.18.04-.08.08-.16.13-.25,1.48,0,2.96-.04,4.43.03.42.02.87.29,1.22.56,1.51,1.22,2.99,2.49,4.57,3.82,1.22-.99,2.49-1.91,3.62-2.97,1.15-1.08,2.39-1.65,4-1.43.74.1,1.51.02,2.27.02.04.08.09.16.13.24Z"/>
      <path d="m40.69.09h4.16c3.26,4.14,6.63,8.41,10.15,12.87h-4.66c-2.5-3.41-5-6.82-7.6-10.37-2.68,3.55-5.21,6.92-7.82,10.38h-4.13c3.4-4.42,6.62-8.62,9.9-12.88Z"/>
      <path d="m69.56,13.02h-4.31V2.57h-8.36V.13h20.89v2.34h-8.22v10.54Z"/>
      <path d="m121.01,13.14h-4.12V.03h4.12v13.11Z"/>
      <path d="m42.83,7.86c.98.03,1.6.75,1.55,1.78-.05.97-.66,1.52-1.68,1.51-.95,0-1.76-.82-1.69-1.69.07-.93.87-1.63,1.82-1.59Z"/>
    </g>
  </g>
</svg>