<?xml version="1.0" encoding="UTF-8"?>
<svg id="Capa_2" data-name="Capa 2" xmlns="http://www.w3.org/2000/svg" viewBox="0 0 150 36.83">
  <defs>
    <style>
      .cls-1 {
        fill: #1b0f02;
        fill-rule: evenodd;
      }
    </style>
  </defs>
  <g id="Capa_1-2" data-name="Capa 1">
    <path class="cls-1" d="m104.94,10.43h-5.59v13.71c-2.16,10.28-14,8.42-14.82,0l-.07-13.85h-6.11l.07,13.33c.45,11.69,23.76,14.37,26.52,1.27v-14.45h0ZM0,32.77h5.88v-13.63c.3-9.61,14.97-9.38,14.52.67v13.18h6.18v-13.7C23.76,6.48,3.65,6.48.08,17.72l-.08,15.05Zm51.17.45h5.81v-12.96c-.97-16.31-33.96-12.73-24.58,8.04,3.5,5.66,12.21,6.78,17.2,3.28v-2.16c-5.29,1.19-9.23,2.46-12.14-3.8-5.14-14.97,13.85-18.1,13.55-5.29l.15,12.89Zm93.02.89h5.81v-12.96c-.97-16.31-33.96-12.74-24.58,8.04,3.5,5.66,12.22,6.7,17.2,3.28v-2.16c-5.29,1.19-9.23,2.46-12.14-3.8-5.14-14.97,13.85-18.1,13.55-5.29l.15,12.88Zm-20.86-23.39v2.01c-4.47-.37-6.85,1.49-7.15,5.59l-.37,15.34h-5.44v-15.57c1.49-6.7,6.41-8.94,12.96-7.37h0Zm-54.74-.67h5.44l-.15,3.87h-4.99v15.49c.3,4.17,2.83,5.36,6.33,5.14v2.08c-6.7.82-11.62-.89-12.66-8.34V0h6.03v10.05h0Z"/>
  </g>
</svg>